<svg width="384" height="105" viewBox="0 0 384 105" fill="none" xmlns="http://www.w3.org/2000/svg">
<path d="M37.32 11.8V20.6C35.6933 20.6 34.2933 20.7467 33.12 21.04C31.9733 21.3067 31.1067 21.8133 30.52 22.56C29.96 23.28 29.7467 24.32 29.88 25.68L31.12 37.48C31.44 40.4667 31.1067 42.88 30.12 44.72C29.16 46.56 27.68 47.9733 25.68 48.96C23.7067 49.92 21.3733 50.6 18.68 51C21.5333 51.4267 23.9467 52.12 25.92 53.08C27.8933 54.04 29.3333 55.4267 30.24 57.24C31.1467 59.0533 31.44 61.48 31.12 64.52L29.88 76.32C29.7467 77.6533 29.96 78.6933 30.52 79.44C31.1067 80.1867 31.9867 80.6933 33.16 80.96C34.3333 81.2533 35.72 81.4 37.32 81.4V90.2C33.64 90.2 30.52 89.9333 27.96 89.4C25.4 88.8667 23.3467 88.0133 21.8 86.84C20.28 85.6933 19.2267 84.1733 18.64 82.28C18.08 80.4133 17.9333 78.1333 18.2 75.44L19.4 64C19.6133 61.9733 19.2667 60.3867 18.36 59.24C17.48 58.0933 16.1733 57.2933 14.44 56.84C12.7067 56.36 10.7067 56.12 8.44 56.12V45.88C10.68 45.88 12.6667 45.6533 14.4 45.2C16.1333 44.72 17.4533 43.9067 18.36 42.76C19.2667 41.6133 19.6133 40.0267 19.4 38L18.2 26.64C17.9067 23.8933 18.04 21.5733 18.6 19.68C19.1867 17.7867 20.24 16.2667 21.76 15.12C23.3067 13.9467 25.36 13.1067 27.92 12.6C30.5067 12.0667 33.64 11.8 37.32 11.8ZM346.461 11.8C350.141 11.8 353.261 12.0667 355.821 12.6C358.381 13.1333 360.421 13.9867 361.941 15.16C363.488 16.3067 364.555 17.8267 365.141 19.72C365.728 21.5867 365.875 23.8667 365.581 26.56L364.381 38C364.168 40.0267 364.515 41.6133 365.421 42.76C366.328 43.9067 367.635 44.72 369.341 45.2C371.075 45.6533 373.075 45.88 375.341 45.88V56.12C373.101 56.12 371.115 56.36 369.381 56.84C367.648 57.2933 366.328 58.0933 365.421 59.24C364.515 60.3867 364.168 61.9733 364.381 64L365.581 75.36C365.875 78.1067 365.728 80.4267 365.141 82.32C364.581 84.2133 363.528 85.7333 361.981 86.88C360.461 88.0533 358.408 88.8933 355.821 89.4C353.261 89.9333 350.141 90.2 346.461 90.2V81.4C348.088 81.4 349.475 81.2533 350.621 80.96C351.795 80.6933 352.661 80.1867 353.221 79.44C353.808 78.6933 354.035 77.6533 353.901 76.32L352.661 64.52C352.341 61.5067 352.661 59.0933 353.621 57.28C354.608 55.44 356.101 54.04 358.101 53.08C360.101 52.0933 362.448 51.4 365.141 51C362.288 50.5733 359.861 49.88 357.861 48.92C355.888 47.96 354.448 46.5733 353.541 44.76C352.635 42.92 352.341 40.4933 352.661 37.48L353.901 25.68C354.035 24.32 353.808 23.28 353.221 22.56C352.661 21.8133 351.795 21.3067 350.621 21.04C349.475 20.7467 348.088 20.6 346.461 20.6V11.8Z" fill="#38BDF8"/>
<path d="M78.5288 58.2V79H65.4088V58.28L47.3287 23.56H61.6888L72.2088 47.44L82.8088 23.56H96.6088L78.5288 58.2ZM112.498 61.44C112.791 63.76 113.391 65.64 114.298 67.08C115.231 68.4933 116.418 69.5333 117.858 70.2C119.298 70.84 120.911 71.16 122.698 71.16C124.644 71.16 126.524 70.84 128.338 70.2C130.151 69.56 131.898 68.7067 133.578 67.64L138.658 74.52C136.658 76.2267 134.231 77.6267 131.378 78.72C128.551 79.8133 125.324 80.36 121.698 80.36C116.844 80.36 112.778 79.4 109.498 77.48C106.218 75.5333 103.751 72.8667 102.098 69.48C100.444 66.0933 99.6175 62.2 99.6175 57.8C99.6175 53.6133 100.418 49.8133 102.018 46.4C103.618 42.96 105.951 40.2267 109.018 38.2C112.111 36.1467 115.884 35.12 120.338 35.12C124.391 35.12 127.898 35.9867 130.858 37.72C133.844 39.4533 136.151 41.9467 137.778 45.2C139.431 48.4533 140.258 52.36 140.258 56.92C140.258 57.64 140.231 58.4133 140.178 59.24C140.151 60.0667 140.098 60.8 140.017 61.44H112.498ZM120.338 43.6C118.071 43.6 116.244 44.4133 114.858 46.04C113.471 47.6667 112.631 50.2667 112.338 53.84H127.938C127.911 50.7467 127.311 48.2667 126.138 46.4C124.964 44.5333 123.031 43.6 120.338 43.6ZM176.546 18.32C179.64 18.32 182.373 18.5733 184.746 19.08C187.12 19.56 189.24 20.2 191.106 21L187.626 29.24C186.16 28.68 184.653 28.28 183.106 28.04C181.56 27.7733 180.026 27.64 178.506 27.64C176 27.64 174.2 28.0933 173.106 29C172.04 29.9067 171.506 31.4133 171.506 33.52V39.2H185.346L183.946 47.96H171.506V79H158.946V47.96H150.026V39.2H158.946V33.04C158.946 30.24 159.613 27.7333 160.946 25.52C162.28 23.3067 164.253 21.56 166.866 20.28C169.48 18.9733 172.706 18.32 176.546 18.32ZM240.115 23.56L233.635 79H219.995L215.955 39.36L211.515 79H197.635L191.635 23.56H203.915L205.795 67.8L210.395 29.96H221.675L225.955 67.8L228.715 23.56H240.115ZM256.404 61.44C256.697 63.76 257.297 65.64 258.204 67.08C259.137 68.4933 260.324 69.5333 261.764 70.2C263.204 70.84 264.817 71.16 266.604 71.16C268.55 71.16 270.43 70.84 272.244 70.2C274.057 69.56 275.804 68.7067 277.484 67.64L282.564 74.52C280.564 76.2267 278.137 77.6267 275.284 78.72C272.457 79.8133 269.23 80.36 265.604 80.36C260.75 80.36 256.684 79.4 253.404 77.48C250.124 75.5333 247.657 72.8667 246.004 69.48C244.35 66.0933 243.524 62.2 243.524 57.8C243.524 53.6133 244.324 49.8133 245.924 46.4C247.524 42.96 249.857 40.2267 252.924 38.2C256.017 36.1467 259.79 35.12 264.244 35.12C268.297 35.12 271.804 35.9867 274.764 37.72C277.75 39.4533 280.057 41.9467 281.684 45.2C283.337 48.4533 284.164 52.36 284.164 56.92C284.164 57.64 284.137 58.4133 284.084 59.24C284.057 60.0667 284.004 60.8 283.924 61.44H256.404ZM264.244 43.6C261.977 43.6 260.15 44.4133 258.764 46.04C257.377 47.6667 256.537 50.2667 256.244 53.84H271.844C271.817 50.7467 271.217 48.2667 270.044 46.4C268.87 44.5333 266.937 43.6 264.244 43.6ZM306.053 40.88C307.386 39.12 308.986 37.72 310.853 36.68C312.746 35.64 314.773 35.12 316.933 35.12C320.586 35.12 323.559 36.04 325.853 37.88C328.173 39.72 329.879 42.32 330.972 45.68C332.066 49.04 332.613 53.0267 332.613 57.64C332.613 62.0133 331.959 65.92 330.653 69.36C329.373 72.7733 327.466 75.4667 324.933 77.44C322.399 79.3867 319.293 80.36 315.613 80.36C311.159 80.36 307.653 78.6267 305.093 75.16L304.613 79H293.413V19.64L306.053 18.32V40.88ZM312.293 71.16C314.533 71.16 316.306 70.1333 317.613 68.08C318.919 66 319.573 62.5733 319.573 57.8C319.573 54.28 319.293 51.56 318.733 49.64C318.199 47.6933 317.426 46.3467 316.413 45.6C315.426 44.8267 314.266 44.44 312.933 44.44C311.519 44.44 310.253 44.88 309.133 45.76C308.013 46.64 306.986 47.84 306.053 49.36V67.28C306.853 68.5333 307.746 69.4933 308.733 70.16C309.719 70.8267 310.906 71.16 312.293 71.16Z" fill="white"/>
</svg>
